<svg width="16" height="16" viewBox="0 0 16 16" fill="none" xmlns="http://www.w3.org/2000/svg">
<g clip-path="url(#clip0_2135_19004)">
<path d="M6 7.33398C6 7.86442 6.21071 8.37313 6.58579 8.7482C6.96086 9.12327 7.46957 9.33398 8 9.33398C8.53043 9.33398 9.03914 9.12327 9.41421 8.7482C9.78929 8.37313 10 7.86442 10 7.33398C10 6.80355 9.78929 6.29484 9.41421 5.91977C9.03914 5.5447 8.53043 5.33398 8 5.33398C7.46957 5.33398 6.96086 5.5447 6.58579 5.91977C6.21071 6.29484 6 6.80355 6 7.33398Z" stroke="white" stroke-linecap="round" stroke-linejoin="round"/>
<path d="M11.7726 11.1045L8.94397 13.9331C8.69396 14.1829 8.35503 14.3232 8.00164 14.3232C7.64825 14.3232 7.30931 14.1829 7.0593 13.9331L4.22997 11.1045C3.48412 10.3586 2.9762 9.40827 2.77043 8.37371C2.56466 7.33916 2.6703 6.26681 3.07397 5.29229C3.47765 4.31777 4.16124 3.48483 5.03829 2.89881C5.91535 2.31279 6.94648 2 8.0013 2C9.05613 2 10.0873 2.31279 10.9643 2.89881C11.8414 3.48483 12.525 4.31777 12.9286 5.29229C13.3323 6.26681 13.4379 7.33916 13.2322 8.37371C13.0264 9.40827 12.5185 10.3586 11.7726 11.1045Z" stroke="white" stroke-linecap="round" stroke-linejoin="round"/>
</g>
<defs>
<clipPath id="clip0_2135_19004">
<rect width="16" height="16" fill="white"/>
</clipPath>
</defs>
</svg>
